# Blender 4.5.0
# www.blender.org
mtllib Untitled.mtl
g Cube_Cube
v 1.797792 1.705204 -0.067709
v 1.797792 -1.705204 -0.067709
v 1.797792 1.705204 0.067709
v 1.797792 -1.705204 0.067709
v 0.202212 1.705204 -0.067709
v 0.202212 -1.705204 -0.067709
v 0.202212 1.705204 0.067709
v 0.202212 -1.705204 0.067709
v 1.878332 0.000000 -0.111872
v 0.121671 0.000000 0.111872
v 1.878332 0.000000 0.111872
v 0.121671 0.000000 -0.111872
v 2.000002 -1.899809 -0.111872
v 0.000002 -1.899809 -0.111872
v 2.000002 0.000000 -0.111872
v 0.000002 0.000000 0.111872
v 0.000002 1.899809 0.111872
v 2.000002 0.000000 0.111872
v 2.000002 -1.899809 0.111872
v 0.000002 0.000000 -0.111872
v 2.000002 1.899809 0.111872
v 0.000002 -1.899809 0.111872
v 0.000002 1.899809 -0.111872
v 2.000002 1.899809 -0.111872
v 1.878332 -1.771246 -0.111872
v 0.121671 -1.771246 -0.111872
v 1.797792 0.000000 -0.067709
v 0.202212 0.000000 0.067709
v 0.121671 1.771246 0.111872
v 1.797792 0.000000 0.067709
v 1.878332 -1.771246 0.111872
v 0.202212 0.000000 -0.067709
v 1.878332 1.771246 0.111872
v 0.121671 -1.771246 0.111872
v 0.121671 1.771246 -0.111872
v 1.878332 1.771246 -0.111872
vn -0.0000 1.0000 -0.0000
vn -0.0000 -0.0000 1.0000
vn -1.0000 -0.0000 -0.0000
vn -0.0000 -1.0000 -0.0000
vn 1.0000 -0.0000 -0.0000
vn -0.0000 -0.0000 -1.0000
vn -0.0000 0.5559 -0.8313
vn -0.4808 -0.0000 -0.8768
vn 0.4808 -0.0000 0.8768
vn -0.4808 -0.0000 0.8768
vn 0.4808 -0.0000 -0.8768
vn -0.0000 -0.5559 0.8313
vn -0.0000 0.5559 0.8313
vn -0.0000 -0.5559 -0.8313
vt 0.625000 0.500000
vt 0.875000 0.500000
vt 0.875000 0.750000
vt 0.625000 0.750000
vt 0.500000 0.765209
vt 0.609791 0.765209
vt 0.609791 0.984791
vt 0.500000 0.984791
vt 0.500000 0.000000
vt 0.625000 0.000000
vt 0.625000 0.250000
vt 0.500000 0.250000
vt 0.125000 0.500000
vt 0.375000 0.500000
vt 0.375000 0.750000
vt 0.125000 0.750000
vt 0.500000 0.500000
vt 0.500000 0.750000
vt 0.500000 0.265209
vt 0.609791 0.265209
vt 0.609791 0.484791
vt 0.500000 0.484791
vt 0.390209 0.265209
vt 0.390209 0.484791
vt 0.375000 0.000000
vt 0.375000 0.250000
vt 0.390209 0.765209
vt 0.390209 0.984791
vt 0.625000 1.000000
vt 0.500000 1.000000
vt 0.375000 1.000000
s 0
g Cube_Material
usemtl Material
f 24/1/1 23/2/1 17/3/1 21/4/1
f 30/5/2 3/6/2 7/7/2 28/8/2
f 16/9/3 17/10/3 23/11/3 20/12/3
f 14/13/4 13/14/4 19/15/4 22/16/4
f 15/17/5 24/1/5 21/4/5 18/18/5
f 32/19/6 5/20/6 1/21/6 27/22/6
f 6/23/6 32/19/6 27/22/6 2/24/6
f 13/14/5 15/17/5 18/18/5 19/15/5
f 22/25/3 16/9/3 20/12/3 14/26/3
f 4/27/2 30/5/2 28/8/2 8/28/2
f 26/23/6 25/24/6 13/14/6 14/26/6
f 25/24/6 9/22/6 15/17/6 13/14/6
f 10/8/2 29/7/2 17/29/2 16/30/2
f 11/5/2 31/27/2 19/15/2 18/18/2
f 12/19/6 26/23/6 14/26/6 20/12/6
f 29/7/2 33/6/2 21/4/2 17/29/2
f 31/27/2 34/28/2 22/31/2 19/15/2
f 36/21/6 35/20/6 23/11/6 24/1/6
f 9/22/6 36/21/6 24/1/6 15/17/6
f 34/28/2 10/8/2 16/30/2 22/31/2
f 33/6/2 11/5/2 18/18/2 21/4/2
f 35/20/6 12/19/6 20/12/6 23/11/6
f 6/23/7 2/24/7 25/24/7 26/23/7
f 2/24/8 27/22/8 9/22/8 25/24/8
f 28/8/9 7/7/9 29/7/9 10/8/9
f 30/5/10 4/27/10 31/27/10 11/5/10
f 32/19/11 6/23/11 26/23/11 12/19/11
f 7/7/12 3/6/12 33/6/12 29/7/12
f 4/27/13 8/28/13 34/28/13 31/27/13
f 1/21/14 5/20/14 35/20/14 36/21/14
f 27/22/8 1/21/8 36/21/8 9/22/8
f 8/28/9 28/8/9 10/8/9 34/28/9
f 3/6/10 30/5/10 11/5/10 33/6/10
f 5/20/11 32/19/11 12/19/11 35/20/11
g Cube.001_Cube.001
v 0.001488 -1.899810 -0.029117
v 0.001488 1.899810 -0.029117
v 0.001488 -1.899810 -0.252861
v 0.001488 1.899810 -0.252861
v 2.001488 -1.899810 -0.029117
v 2.001488 1.899810 -0.029117
v 2.001488 -1.899810 -0.252861
v 2.001488 1.899810 -0.252861
vn -1.0000 -0.0000 -0.0000
vn -0.0000 -0.0000 -1.0000
vn 1.0000 -0.0000 -0.0000
vn -0.0000 -0.0000 1.0000
vn -0.0000 -1.0000 -0.0000
vn -0.0000 1.0000 -0.0000
vt 0.375000 0.000000
vt 0.625000 0.000000
vt 0.625000 0.250000
vt 0.375000 0.250000
vt 0.625000 0.500000
vt 0.375000 0.500000
vt 0.625000 0.750000
vt 0.375000 0.750000
vt 0.625000 1.000000
vt 0.375000 1.000000
vt 0.125000 0.500000
vt 0.125000 0.750000
vt 0.875000 0.500000
vt 0.875000 0.750000
s 0
f 37/32/15 38/33/15 40/34/15 39/35/15
f 39/35/16 40/34/16 44/36/16 43/37/16
f 43/37/17 44/36/17 42/38/17 41/39/17
f 41/39/18 42/38/18 38/40/18 37/41/18
f 39/42/19 43/37/19 41/39/19 37/43/19
f 44/36/20 40/44/20 38/45/20 42/38/20
